<?xml version="1.0" encoding="UTF-8" standalone="no"?>
<!DOCTYPE svg PUBLIC "-//W3C//DTD SVG 1.1//EN"
 "http://www.w3.org/Graphics/SVG/1.1/DTD/svg11.dtd">
<!-- Generated by graphviz version 2.38.0 (20140413.2041)
 -->
<!-- Title: models_diagram Pages: 1 -->
<svg width="1984pt" height="302pt"
 viewBox="0.00 0.00 1983.55 302.00" xmlns="http://www.w3.org/2000/svg" xmlns:xlink="http://www.w3.org/1999/xlink">
<g id="graph0" class="graph" transform="scale(1 1) rotate(0) translate(4 298)">
<title>models_diagram</title>
<polygon fill="none" stroke="none" points="-4,4 -4,-298 1979.55,-298 1979.55,4 -4,4"/>
<!-- _diagram_info -->
<g id="node1" class="node"><title>_diagram_info</title>
<text text-anchor="start" x="8" y="-251.6" font-family="Times,serif" font-size="13.00">Models diagram</text>
<text text-anchor="start" x="8" y="-238.6" font-family="Times,serif" font-size="13.00">Date: Dec 13 2016 &#45; 17:17</text>
<text text-anchor="start" x="8" y="-225.6" font-family="Times,serif" font-size="13.00">Migration version: 20161209205613</text>
<text text-anchor="start" x="8" y="-212.6" font-family="Times,serif" font-size="13.00">Generated by RailRoady 1.5.1</text>
<text text-anchor="start" x="8" y="-199.6" font-family="Times,serif" font-size="13.00">http://railroady.prestonlee.com</text>
</g>
<!-- ApplicationRecord -->
<g id="node2" class="node"><title>ApplicationRecord</title>
<ellipse fill="none" stroke="black" cx="302.688" cy="-229.5" rx="77.2916" ry="18"/>
<text text-anchor="middle" x="302.688" y="-225.3" font-family="Times,serif" font-size="14.00">ApplicationRecord</text>
</g>
<!-- Attendance -->
<g id="node3" class="node"><title>Attendance</title>
<path fill="none" stroke="black" d="M409.825,-172.5C409.825,-172.5 633.55,-172.5 633.55,-172.5 639.55,-172.5 645.55,-178.5 645.55,-184.5 645.55,-184.5 645.55,-274.5 645.55,-274.5 645.55,-280.5 639.55,-286.5 633.55,-286.5 633.55,-286.5 409.825,-286.5 409.825,-286.5 403.825,-286.5 397.825,-280.5 397.825,-274.5 397.825,-274.5 397.825,-184.5 397.825,-184.5 397.825,-178.5 403.825,-172.5 409.825,-172.5"/>
<text text-anchor="middle" x="521.688" y="-271.3" font-family="Times,serif" font-size="14.00">Attendance</text>
<polyline fill="none" stroke="black" points="397.825,-264.5 645.55,-264.5 "/>
<text text-anchor="start" x="405.825" y="-249.3" font-family="Times,serif" font-size="14.00">id :integer</text>
<text text-anchor="start" x="405.825" y="-235.3" font-family="Times,serif" font-size="14.00">exercise_class_id :integer</text>
<text text-anchor="start" x="405.825" y="-221.3" font-family="Times,serif" font-size="14.00">user_id :integer</text>
<text text-anchor="start" x="405.825" y="-207.3" font-family="Times,serif" font-size="14.00">date :timestamp without time zone</text>
<text text-anchor="start" x="405.825" y="-193.3" font-family="Times,serif" font-size="14.00">created_at :timestamp without time zone</text>
<text text-anchor="start" x="405.825" y="-179.3" font-family="Times,serif" font-size="14.00">updated_at :timestamp without time zone</text>
</g>
<!-- Category -->
<g id="node4" class="node"><title>Category</title>
<path fill="none" stroke="black" d="M675.825,-186.5C675.825,-186.5 899.55,-186.5 899.55,-186.5 905.55,-186.5 911.55,-192.5 911.55,-198.5 911.55,-198.5 911.55,-260.5 911.55,-260.5 911.55,-266.5 905.55,-272.5 899.55,-272.5 899.55,-272.5 675.825,-272.5 675.825,-272.5 669.825,-272.5 663.825,-266.5 663.825,-260.5 663.825,-260.5 663.825,-198.5 663.825,-198.5 663.825,-192.5 669.825,-186.5 675.825,-186.5"/>
<text text-anchor="middle" x="787.688" y="-257.3" font-family="Times,serif" font-size="14.00">Category</text>
<polyline fill="none" stroke="black" points="663.825,-250.5 911.55,-250.5 "/>
<text text-anchor="start" x="671.825" y="-235.3" font-family="Times,serif" font-size="14.00">id :integer</text>
<text text-anchor="start" x="671.825" y="-221.3" font-family="Times,serif" font-size="14.00">name :character varying</text>
<text text-anchor="start" x="671.825" y="-207.3" font-family="Times,serif" font-size="14.00">created_at :timestamp without time zone</text>
<text text-anchor="start" x="671.825" y="-193.3" font-family="Times,serif" font-size="14.00">updated_at :timestamp without time zone</text>
</g>
<!-- ExerciseClass -->
<g id="node5" class="node"><title>ExerciseClass</title>
<path fill="none" stroke="black" d="M941.825,-165.5C941.825,-165.5 1165.55,-165.5 1165.55,-165.5 1171.55,-165.5 1177.55,-171.5 1177.55,-177.5 1177.55,-177.5 1177.55,-281.5 1177.55,-281.5 1177.55,-287.5 1171.55,-293.5 1165.55,-293.5 1165.55,-293.5 941.825,-293.5 941.825,-293.5 935.825,-293.5 929.825,-287.5 929.825,-281.5 929.825,-281.5 929.825,-177.5 929.825,-177.5 929.825,-171.5 935.825,-165.5 941.825,-165.5"/>
<text text-anchor="middle" x="1053.69" y="-278.3" font-family="Times,serif" font-size="14.00">ExerciseClass</text>
<polyline fill="none" stroke="black" points="929.825,-271.5 1177.55,-271.5 "/>
<text text-anchor="start" x="937.825" y="-256.3" font-family="Times,serif" font-size="14.00">name :character varying</text>
<text text-anchor="start" x="937.825" y="-242.3" font-family="Times,serif" font-size="14.00">studio_id :integer</text>
<text text-anchor="start" x="937.825" y="-228.3" font-family="Times,serif" font-size="14.00">category_id :integer</text>
<text text-anchor="start" x="937.825" y="-214.3" font-family="Times,serif" font-size="14.00">id :integer</text>
<text text-anchor="start" x="937.825" y="-200.3" font-family="Times,serif" font-size="14.00">description :character varying</text>
<text text-anchor="start" x="937.825" y="-186.3" font-family="Times,serif" font-size="14.00">created_at :timestamp without time zone</text>
<text text-anchor="start" x="937.825" y="-172.3" font-family="Times,serif" font-size="14.00">updated_at :timestamp without time zone</text>
</g>
<!-- Rating -->
<g id="node7" class="node"><title>Rating</title>
<path fill="none" stroke="black" d="M941.825,-0.5C941.825,-0.5 1165.55,-0.5 1165.55,-0.5 1171.55,-0.5 1177.55,-6.5 1177.55,-12.5 1177.55,-12.5 1177.55,-116.5 1177.55,-116.5 1177.55,-122.5 1171.55,-128.5 1165.55,-128.5 1165.55,-128.5 941.825,-128.5 941.825,-128.5 935.825,-128.5 929.825,-122.5 929.825,-116.5 929.825,-116.5 929.825,-12.5 929.825,-12.5 929.825,-6.5 935.825,-0.5 941.825,-0.5"/>
<text text-anchor="middle" x="1053.69" y="-113.3" font-family="Times,serif" font-size="14.00">Rating</text>
<polyline fill="none" stroke="black" points="929.825,-106.5 1177.55,-106.5 "/>
<text text-anchor="start" x="937.825" y="-91.3" font-family="Times,serif" font-size="14.00">exercise_class_attribute_id :integer</text>
<text text-anchor="start" x="937.825" y="-77.3" font-family="Times,serif" font-size="14.00">user_id :integer</text>
<text text-anchor="start" x="937.825" y="-63.3" font-family="Times,serif" font-size="14.00">exercise_class_id :integer</text>
<text text-anchor="start" x="937.825" y="-49.3" font-family="Times,serif" font-size="14.00">id :integer</text>
<text text-anchor="start" x="937.825" y="-35.3" font-family="Times,serif" font-size="14.00">score :integer</text>
<text text-anchor="start" x="937.825" y="-21.3" font-family="Times,serif" font-size="14.00">created_at :timestamp without time zone</text>
<text text-anchor="start" x="937.825" y="-7.3" font-family="Times,serif" font-size="14.00">updated_at :timestamp without time zone</text>
</g>
<!-- ExerciseClass&#45;&gt;Rating -->
<g id="edge1" class="edge"><title>ExerciseClass&#45;&gt;Rating</title>
<path fill="none" stroke="#1bf2d4" d="M1053.69,-157.473C1053.69,-151.322 1053.69,-145.09 1053.69,-138.92"/>
<ellipse fill="none" stroke="#1bf2d4" cx="1053.69" cy="-161.48" rx="4" ry="4"/>
<polygon fill="#1bf2d4" stroke="#1bf2d4" points="1053.69,-138.621 1058.19,-128.621 1053.69,-133.621 1053.69,-128.621 1053.69,-128.621 1053.69,-128.621 1053.69,-133.621 1049.19,-128.621 1053.69,-138.621 1053.69,-138.621"/>
</g>
<!-- ExerciseClassAttribute -->
<g id="node6" class="node"><title>ExerciseClassAttribute</title>
<path fill="none" stroke="black" d="M1207.83,-186.5C1207.83,-186.5 1431.55,-186.5 1431.55,-186.5 1437.55,-186.5 1443.55,-192.5 1443.55,-198.5 1443.55,-198.5 1443.55,-260.5 1443.55,-260.5 1443.55,-266.5 1437.55,-272.5 1431.55,-272.5 1431.55,-272.5 1207.83,-272.5 1207.83,-272.5 1201.83,-272.5 1195.83,-266.5 1195.83,-260.5 1195.83,-260.5 1195.83,-198.5 1195.83,-198.5 1195.83,-192.5 1201.83,-186.5 1207.83,-186.5"/>
<text text-anchor="middle" x="1319.69" y="-257.3" font-family="Times,serif" font-size="14.00">ExerciseClassAttribute</text>
<polyline fill="none" stroke="black" points="1195.83,-250.5 1443.55,-250.5 "/>
<text text-anchor="start" x="1203.83" y="-235.3" font-family="Times,serif" font-size="14.00">id :integer</text>
<text text-anchor="start" x="1203.83" y="-221.3" font-family="Times,serif" font-size="14.00">name :character varying</text>
<text text-anchor="start" x="1203.83" y="-207.3" font-family="Times,serif" font-size="14.00">created_at :timestamp without time zone</text>
<text text-anchor="start" x="1203.83" y="-193.3" font-family="Times,serif" font-size="14.00">updated_at :timestamp without time zone</text>
</g>
<!-- Studio -->
<g id="node8" class="node"><title>Studio</title>
<path fill="none" stroke="black" d="M1473.83,-179.5C1473.83,-179.5 1697.55,-179.5 1697.55,-179.5 1703.55,-179.5 1709.55,-185.5 1709.55,-191.5 1709.55,-191.5 1709.55,-267.5 1709.55,-267.5 1709.55,-273.5 1703.55,-279.5 1697.55,-279.5 1697.55,-279.5 1473.83,-279.5 1473.83,-279.5 1467.83,-279.5 1461.83,-273.5 1461.83,-267.5 1461.83,-267.5 1461.83,-191.5 1461.83,-191.5 1461.83,-185.5 1467.83,-179.5 1473.83,-179.5"/>
<text text-anchor="middle" x="1585.69" y="-264.3" font-family="Times,serif" font-size="14.00">Studio</text>
<polyline fill="none" stroke="black" points="1461.83,-257.5 1709.55,-257.5 "/>
<text text-anchor="start" x="1469.83" y="-242.3" font-family="Times,serif" font-size="14.00">id :integer</text>
<text text-anchor="start" x="1469.83" y="-228.3" font-family="Times,serif" font-size="14.00">name :character varying</text>
<text text-anchor="start" x="1469.83" y="-214.3" font-family="Times,serif" font-size="14.00">address :character varying</text>
<text text-anchor="start" x="1469.83" y="-200.3" font-family="Times,serif" font-size="14.00">created_at :timestamp without time zone</text>
<text text-anchor="start" x="1469.83" y="-186.3" font-family="Times,serif" font-size="14.00">updated_at :timestamp without time zone</text>
</g>
<!-- User -->
<g id="node9" class="node"><title>User</title>
<path fill="none" stroke="black" d="M1739.83,-179.5C1739.83,-179.5 1963.55,-179.5 1963.55,-179.5 1969.55,-179.5 1975.55,-185.5 1975.55,-191.5 1975.55,-191.5 1975.55,-267.5 1975.55,-267.5 1975.55,-273.5 1969.55,-279.5 1963.55,-279.5 1963.55,-279.5 1739.83,-279.5 1739.83,-279.5 1733.83,-279.5 1727.83,-273.5 1727.83,-267.5 1727.83,-267.5 1727.83,-191.5 1727.83,-191.5 1727.83,-185.5 1733.83,-179.5 1739.83,-179.5"/>
<text text-anchor="middle" x="1851.69" y="-264.3" font-family="Times,serif" font-size="14.00">User</text>
<polyline fill="none" stroke="black" points="1727.83,-257.5 1975.55,-257.5 "/>
<text text-anchor="start" x="1735.83" y="-242.3" font-family="Times,serif" font-size="14.00">id :integer</text>
<text text-anchor="start" x="1735.83" y="-228.3" font-family="Times,serif" font-size="14.00">name :character varying</text>
<text text-anchor="start" x="1735.83" y="-214.3" font-family="Times,serif" font-size="14.00">email :character varying</text>
<text text-anchor="start" x="1735.83" y="-200.3" font-family="Times,serif" font-size="14.00">created_at :timestamp without time zone</text>
<text text-anchor="start" x="1735.83" y="-186.3" font-family="Times,serif" font-size="14.00">updated_at :timestamp without time zone</text>
</g>
</g>
</svg>
