<?xml version="1.0" encoding="UTF-8" standalone="no"?>
<!DOCTYPE svg PUBLIC "-//W3C//DTD SVG 1.1//EN"
 "http://www.w3.org/Graphics/SVG/1.1/DTD/svg11.dtd">
<!-- Generated by graphviz version 2.38.0 (20140413.2041)
 -->
<!-- Title: models_diagram Pages: 1 -->
<svg width="1105pt" height="153pt"
 viewBox="0.00 0.00 1104.69 153.00" xmlns="http://www.w3.org/2000/svg" xmlns:xlink="http://www.w3.org/1999/xlink">
<g id="graph0" class="graph" transform="scale(1 1) rotate(0) translate(4 149)">
<title>models_diagram</title>
<polygon fill="none" stroke="none" points="-4,4 -4,-149 1100.69,-149 1100.69,4 -4,4"/>
<!-- _diagram_info -->
<g id="node1" class="node"><title>_diagram_info</title>
<text text-anchor="start" x="8" y="-130.6" font-family="Times,serif" font-size="13.00">Models diagram</text>
<text text-anchor="start" x="8" y="-117.6" font-family="Times,serif" font-size="13.00">Date: Dec 13 2016 &#45; 17:17</text>
<text text-anchor="start" x="8" y="-104.6" font-family="Times,serif" font-size="13.00">Migration version: 20161209205613</text>
<text text-anchor="start" x="8" y="-91.6" font-family="Times,serif" font-size="13.00">Generated by RailRoady 1.5.1</text>
<text text-anchor="start" x="8" y="-78.6" font-family="Times,serif" font-size="13.00">http://railroady.prestonlee.com</text>
</g>
<!-- ApplicationRecord -->
<g id="node2" class="node"><title>ApplicationRecord</title>
<ellipse fill="none" stroke="black" cx="302.688" cy="-108.5" rx="77.2916" ry="18"/>
<text text-anchor="middle" x="302.688" y="-104.3" font-family="Times,serif" font-size="14.00">ApplicationRecord</text>
</g>
<!-- Attendance -->
<g id="node3" class="node"><title>Attendance</title>
<ellipse fill="none" stroke="black" cx="448.688" cy="-108.5" rx="50.2465" ry="18"/>
<text text-anchor="middle" x="448.688" y="-104.3" font-family="Times,serif" font-size="14.00">Attendance</text>
</g>
<!-- Category -->
<g id="node4" class="node"><title>Category</title>
<ellipse fill="none" stroke="black" cx="559.688" cy="-108.5" rx="42.5456" ry="18"/>
<text text-anchor="middle" x="559.688" y="-104.3" font-family="Times,serif" font-size="14.00">Category</text>
</g>
<!-- ExerciseClass -->
<g id="node5" class="node"><title>ExerciseClass</title>
<ellipse fill="none" stroke="black" cx="679.688" cy="-108.5" rx="59.927" ry="18"/>
<text text-anchor="middle" x="679.688" y="-104.3" font-family="Times,serif" font-size="14.00">ExerciseClass</text>
</g>
<!-- Rating -->
<g id="node7" class="node"><title>Rating</title>
<ellipse fill="none" stroke="black" cx="679.688" cy="-18" rx="33.877" ry="18"/>
<text text-anchor="middle" x="679.688" y="-13.8" font-family="Times,serif" font-size="14.00">Rating</text>
</g>
<!-- ExerciseClass&#45;&gt;Rating -->
<g id="edge1" class="edge"><title>ExerciseClass&#45;&gt;Rating</title>
<path fill="none" stroke="#a82468" d="M679.688,-82.189C679.688,-70.9711 679.688,-57.7517 679.688,-46.3113"/>
<ellipse fill="none" stroke="#a82468" cx="679.688" cy="-86.4363" rx="4" ry="4"/>
<polygon fill="#a82468" stroke="#a82468" points="679.688,-46.0113 684.188,-36.0113 679.688,-41.0113 679.688,-36.0113 679.688,-36.0113 679.688,-36.0113 679.688,-41.0113 675.188,-36.0113 679.688,-46.0113 679.688,-46.0113"/>
</g>
<!-- ExerciseClassAttribute -->
<g id="node6" class="node"><title>ExerciseClassAttribute</title>
<ellipse fill="none" stroke="black" cx="848.688" cy="-108.5" rx="91.7825" ry="18"/>
<text text-anchor="middle" x="848.688" y="-104.3" font-family="Times,serif" font-size="14.00">ExerciseClassAttribute</text>
</g>
<!-- Studio -->
<g id="node8" class="node"><title>Studio</title>
<ellipse fill="none" stroke="black" cx="991.688" cy="-108.5" rx="33.4099" ry="18"/>
<text text-anchor="middle" x="991.688" y="-104.3" font-family="Times,serif" font-size="14.00">Studio</text>
</g>
<!-- User -->
<g id="node9" class="node"><title>User</title>
<ellipse fill="none" stroke="black" cx="1069.69" cy="-108.5" rx="27" ry="18"/>
<text text-anchor="middle" x="1069.69" y="-104.3" font-family="Times,serif" font-size="14.00">User</text>
</g>
</g>
</svg>
